# Blender 4.0.1
# www.blender.org
o Walls
v -10.021392 0.296313 -9.771070
v -10.021392 1.096313 -9.771070
v -10.021392 0.296313 -9.971071
v -10.021392 1.096313 -9.971071
v 9.978608 0.296313 -9.771070
v 9.978608 1.096313 -9.771070
v 9.978608 0.296313 -9.971071
v 9.978608 1.096313 -9.971071
v 10.000001 0.300000 -10.000000
v 10.000001 -0.300000 -10.000000
v 10.000001 0.300000 10.000000
v 10.000001 -0.300000 10.000000
v -10.000001 0.300000 -10.000000
v -10.000001 -0.300000 -10.000000
v -10.000001 0.300000 10.000000
v -10.000001 -0.300000 10.000000
v -10.021393 0.296313 9.985552
v -10.021393 1.096313 9.985552
v -10.021393 0.296313 9.785551
v -10.021393 1.096313 9.785551
v 9.978609 0.296313 9.985552
v 9.978609 1.096313 9.985552
v 9.978609 0.296313 9.785551
v 9.978609 1.096313 9.785551
v 9.974877 0.298043 10.003942
v 9.974877 1.098043 10.003942
v 9.774877 0.298043 10.003942
v 9.774877 1.098043 10.003942
v 9.974875 0.298043 -9.996058
v 9.974875 1.098043 -9.996058
v 9.774876 0.298043 -9.996058
v 9.774876 1.098043 -9.996058
vn -1.0000 -0.0000 -0.0000
vn -0.0000 -0.0000 -1.0000
vn 1.0000 -0.0000 -0.0000
vn -0.0000 -0.0000 1.0000
vn -0.0000 -1.0000 -0.0000
vn -0.0000 1.0000 -0.0000
vt 0.056629 0.889231
vt 0.104715 0.987746
vt 0.056629 0.987746
vt 0.016424 0.011015
vt 0.946998 0.083412
vt 0.016424 0.083412
vt 0.184218 0.954712
vt 0.294933 0.924760
vt 0.294933 0.954712
vt 0.760479 0.761394
vt 0.851933 0.193160
vt 0.851933 0.761394
vt 0.627483 0.610550
vt 0.670297 0.578439
vt 0.670297 0.610550
vt 0.016688 0.136633
vt 0.957980 0.095510
vt 0.957980 0.136633
vt 0.987303 0.775191
vt 0.008141 0.350566
vt 0.986816 0.350315
vt 0.223753 0.764853
vt 0.304386 0.253981
vt 0.304386 0.764853
vt 0.036068 0.770874
vt 0.103878 0.239728
vt 0.103878 0.770874
vt 0.006520 0.626525
vt 0.990434 0.224905
vt 0.009719 0.223525
vt 0.126060 0.741280
vt 0.203868 0.227404
vt 0.203869 0.741280
vt 0.324061 0.230095
vt 0.417398 0.758507
vt 0.417398 0.230095
vt 0.033948 0.782564
vt 0.081013 0.873125
vt 0.033948 0.873125
vt 0.044741 0.801891
vt 0.964707 0.848305
vt 0.044741 0.848305
vt 0.154169 0.783005
vt 0.118524 0.856725
vt 0.154169 0.856725
vt 0.977853 0.867509
vt 0.011773 0.818562
vt 0.977853 0.818562
vt 0.673075 0.704481
vt 0.637336 0.742087
vt 0.635918 0.704930
vt 0.734284 0.768348
vt 0.696120 0.190769
vt 0.734284 0.190769
vt 0.673068 0.670436
vt 0.630407 0.660788
vt 0.673068 0.660788
vt 0.568147 0.780882
vt 0.686029 0.218382
vt 0.686029 0.780882
vt 0.673068 0.680084
vt 0.630407 0.670436
vt 0.559469 0.228312
vt 0.441588 0.774500
vt 0.441588 0.228312
vt 0.453183 0.240805
vt 0.552232 0.766695
vt 0.453186 0.766696
vt 0.585084 0.766093
vt 0.618264 0.234710
vt 0.585085 0.234710
vt 0.104715 0.889231
vt 0.946998 0.011015
vt 0.184218 0.924760
vt 0.760479 0.193160
vt 0.627483 0.578439
vt 0.016688 0.095510
vt 0.008628 0.775442
vt 0.223753 0.253981
vt 0.036068 0.239728
vt 0.987235 0.627905
vt 0.126060 0.227404
vt 0.324061 0.758507
vt 0.081013 0.782564
vt 0.964707 0.801891
vt 0.118524 0.783005
vt 0.011773 0.867509
vt 0.674494 0.741638
vt 0.696120 0.768348
vt 0.568147 0.218382
vt 0.630407 0.680084
vt 0.559470 0.774500
vt 0.552229 0.240805
vt 0.618263 0.766094
s 0
f 2/1/1 3/2/1 1/3/1
f 4/4/2 7/5/2 3/6/2
f 8/7/3 5/8/3 7/9/3
f 6/10/4 1/11/4 5/12/4
f 7/13/5 1/14/5 3/15/5
f 4/16/6 6/17/6 8/18/6
f 13/19/6 11/20/6 9/21/6
f 11/22/4 16/23/4 12/24/4
f 15/25/1 14/26/1 16/27/1
f 10/28/5 16/29/5 14/30/5
f 9/31/3 12/32/3 10/33/3
f 13/34/2 10/35/2 14/36/2
f 18/37/1 19/38/1 17/39/1
f 20/40/2 23/41/2 19/42/2
f 24/43/3 21/44/3 23/45/3
f 22/46/4 17/47/4 21/48/4
f 23/49/5 17/50/5 19/51/5
f 20/52/6 22/53/6 24/54/6
f 26/55/4 27/56/4 25/57/4
f 28/58/1 31/59/1 27/60/1
f 32/61/2 29/62/2 31/55/2
f 30/63/3 25/64/3 29/65/3
f 31/66/5 25/67/5 27/68/5
f 28/69/6 30/70/6 32/71/6
f 2/1/1 4/72/1 3/2/1
f 4/4/2 8/73/2 7/5/2
f 8/7/3 6/74/3 5/8/3
f 6/10/4 2/75/4 1/11/4
f 7/13/5 5/76/5 1/14/5
f 4/16/6 2/77/6 6/17/6
f 13/19/6 15/78/6 11/20/6
f 11/22/4 15/79/4 16/23/4
f 15/25/1 13/80/1 14/26/1
f 10/28/5 12/81/5 16/29/5
f 9/31/3 11/82/3 12/32/3
f 13/34/2 9/83/2 10/35/2
f 18/37/1 20/84/1 19/38/1
f 20/40/2 24/85/2 23/41/2
f 24/43/3 22/86/3 21/44/3
f 22/46/4 18/87/4 17/47/4
f 23/49/5 21/88/5 17/50/5
f 20/52/6 18/89/6 22/53/6
f 26/55/4 28/62/4 27/56/4
f 28/58/1 32/90/1 31/59/1
f 32/61/2 30/91/2 29/62/2
f 30/63/3 26/92/3 25/64/3
f 31/66/5 29/93/5 25/67/5
f 28/69/6 26/94/6 30/70/6
